# xmcd CD database file
#
# Track frame offsets:
#	150
#	12951
#	32655
#	60225
#	76276
#	90227
#	106577
#	121659
#	141687
#	157422
#	176279
#	192756
#	210160
#	231982
#
# Disc length: 3193 seconds
#
# Revision: 0
# Processed by: cddbd v1.5.1PL0 Copyright (c) Steve Scherf et al.
# Submitted via: CDex 1.51
#
DISCID=a50c770e
DTITLE=Mo' Indigo - Mo' Indigo
DYEAR=1900
DGENRE=Blues
TTITLE0=Seven Nights In Memphis
TTITLE1=My Baby Likes The Old Time Boogie
TTITLE2=When An Angel Falls From Grace
TTITLE3=You Ain't Even Miserable Yet
TTITLE4=Me And Mister Blues
TTITLE5=Blues On Your Side
TTITLE6=No Way Out
TTITLE7=In My World
TTITLE8=Beg, Borrow Or Steal
TTITLE9=Devil With The Blue Dress
TTITLE10=In The Meantime
TTITLE11=Caught In The Crossfire
TTITLE12=Somebody Else Is On Your Mind
TTITLE13=Hope You're Satisfied
EXTD=
EXTT0=
EXTT1=
EXTT2=
EXTT3=
EXTT4=
EXTT5=
EXTT6=
EXTT7=
EXTT8=
EXTT9=
EXTT10=
EXTT11=
EXTT12=
EXTT13=
PLAYORDER=
